<!-- TODO: substituir por arte final da fênix. Placeholder com gradiente roxo->laranja. -->
<svg xmlns="http://www.w3.org/2000/svg" viewBox="0 0 64 64" width="64" height="64" role="img" aria-label="FlawSkins">
  <defs>
    <linearGradient id="fs" x1="0" y1="0" x2="1" y2="1">
      <stop offset="0" stop-color="#8b5cf6" />
      <stop offset="1" stop-color="#f97316" />
    </linearGradient>
  </defs>
  <rect x="4" y="4" width="56" height="56" rx="16" fill="url(#fs)" />
  <path fill="#fff" d="M32 14c4 6 2 9-1 12 5-1 7-4 7-4 2 7-2 13-6 15 3 .5 6-1 6-1-2 8-9 11-12 8-7-1-11-7-9-14 2 4 5 4 5 4-4-6-3-13 3-18-1 4 1 6 1 6 .5-5 3-9 6-11z"/>
</svg>
